<svg width="12" height="12" viewBox="0 0 12 12" fill="none" xmlns="http://www.w3.org/2000/svg">
<path d="M11.625 1V9.125C11.625 9.29076 11.5592 9.44973 11.4419 9.56694C11.3247 9.68415 11.1658 9.75 11 9.75C10.8342 9.75 10.6753 9.68415 10.5581 9.56694C10.4409 9.44973 10.375 9.29076 10.375 9.125V2.50781L1.44532 11.4453C1.32586 11.5608 1.16618 11.6254 1.00001 11.6254C0.83383 11.6254 0.674156 11.5608 0.554694 11.4453C0.43733 11.3268 0.37149 11.1668 0.37149 11C0.37149 10.8332 0.43733 10.6732 0.554694 10.5547L9.49219 1.625H2.87501C2.70925 1.625 2.55028 1.55915 2.43306 1.44194C2.31585 1.32473 2.25001 1.16576 2.25001 1C2.25001 0.83424 2.31585 0.675269 2.43306 0.558058C2.55028 0.440848 2.70925 0.375 2.87501 0.375H11C11.1658 0.375 11.3247 0.440848 11.4419 0.558058C11.5592 0.675269 11.625 0.83424 11.625 1Z" fill="black"/>
</svg>
