<svg width="17" height="10" viewBox="0 0 17 10" fill="none" xmlns="http://www.w3.org/2000/svg">
<path d="M8.925 0.512781C9.11812 0.512781 9.30497 0.548993 9.48554 0.621414C9.66708 0.693836 9.8182 0.790398 9.9389 0.9111L16.6017 7.57388C16.8672 7.83942 17 8.17739 17 8.58778C17 8.99817 16.8672 9.33614 16.6017 9.60168C16.3361 9.86723 15.9982 10 15.5878 10C15.1774 10 14.8394 9.86723 14.5739 9.60168L8.925 3.9528L3.27612 9.60168C3.01058 9.86723 2.67261 10 2.26222 10C1.85183 10 1.51387 9.86723 1.24832 9.60168C0.982775 9.33614 0.85 8.99817 0.85 8.58778C0.85 8.17739 0.982775 7.83942 1.24832 7.57388L7.9111 0.9111C8.05594 0.766257 8.21286 0.663901 8.38184 0.604033C8.55082 0.5432 8.73188 0.512781 8.925 0.512781Z" fill="black"/>
</svg>
